<?xml version="1.0" encoding="utf-8"?>
<!-- Generator: Adobe Illustrator 22.0.1, SVG Export Plug-In . SVG Version: 6.00 Build 0)  -->
<svg version="1.1" id="Layer_1" xmlns="http://www.w3.org/2000/svg" xmlns:xlink="http://www.w3.org/1999/xlink" x="0px" y="0px"
	 viewBox="0 0 250 240.322" enable-background="new 0 0 250 240.322" xml:space="preserve">
<polygon fill="#00467F" points="221.507,239.333 0.92,239.333 0.92,36.682 36.464,1.067 248.667,1.067 248.667,212.149 "/>
<polygon fill="#FFFFFF" points="39.23,183.506 40.195,183.506 40.195,177.001 42.519,177.001 42.519,176.037 36.904,176.037 
	36.904,177.001 39.23,177.001 "/>
<g>
	<path fill="#FFFFFF" d="M44.202,178.488c-1.219,0-2.067,1.009-2.067,2.499c0,1.357,0.768,2.616,2.147,2.616
		c0.748,0,1.232-0.185,1.763-0.579v-0.94c-0.51,0.372-1.014,0.59-1.547,0.59c-0.847,0-1.349-0.507-1.487-1.478h3.114
		C46.125,179.376,45.375,178.488,44.202,178.488 M43.03,180.55c0.119-0.779,0.521-1.215,1.191-1.215
		c0.621,0,1.007,0.471,1.037,1.215H43.03z"/>
	<polygon fill="#FFFFFF" points="54.595,176.037 53.679,176.037 51.816,181.185 49.966,176.037 48.999,176.037 51.721,183.57 
		51.907,183.57 54.134,177.461 56.338,183.57 56.527,183.57 59.256,176.037 58.3,176.037 56.465,181.185 	"/>
	<path fill="#FFFFFF" d="M64.115,183.506v-3.01c0-1.349-0.641-2.008-1.505-2.008c-0.493,0-0.988,0.276-1.321,0.746H61.27v-3.197
		h-0.877v7.469h0.877v-3.528c0.412-0.512,0.718-0.712,1.104-0.712c0.529,0,0.867,0.473,0.867,1.193v3.047H64.115z"/>
	<path fill="#FFFFFF" d="M67.005,180.845c-0.709,0.285-1.505,0.578-1.505,1.554c0,0.636,0.431,1.204,1.081,1.204
		c0.405,0,0.809-0.165,1.193-0.504c0.081,0.35,0.287,0.504,0.669,0.504c0.276,0,0.444-0.086,0.845-0.383v-0.591
		c-0.194,0.166-0.372,0.264-0.461,0.264c-0.108,0-0.167-0.066-0.167-0.253v-2.528c0-1.117-0.711-1.624-1.606-1.624
		c-0.638,0-1.124,0.219-1.468,0.67v1.063c0.425-0.561,0.916-0.81,1.4-0.81c0.531,0,0.799,0.248,0.799,0.862v0.263L67.005,180.845z
		 M67.785,182.508c-0.238,0.253-0.493,0.404-0.769,0.404c-0.364,0-0.629-0.284-0.629-0.689c0-0.579,0.648-0.867,1.398-1.15V182.508z
		"/>
	<path fill="#FFFFFF" d="M70.654,178.59v4.917h0.874v-2.574c0-0.844,0.474-1.51,1.074-1.51c0.208,0,0.552,0.197,0.818,0.479
		l0.462-0.842c-0.364-0.384-0.697-0.571-1.053-0.571c-0.412,0-0.835,0.365-1.28,1.228h-0.02v-1.127H70.654z"/>
	<path fill="#FFFFFF" d="M76.673,178.488c-1.221,0-2.066,1.009-2.066,2.499c0,1.357,0.768,2.616,2.147,2.616
		c0.748,0,1.23-0.185,1.763-0.579v-0.94c-0.514,0.372-1.015,0.59-1.546,0.59c-0.848,0-1.351-0.507-1.489-1.478h3.114
		C78.595,179.376,77.847,178.488,76.673,178.488 M75.503,180.55c0.117-0.779,0.52-1.215,1.19-1.215c0.621,0,1.004,0.471,1.033,1.215
		H75.503z"/>
	<polygon fill="#FFFFFF" points="87.067,176.037 86.15,176.037 84.289,181.185 82.437,176.037 81.471,176.037 84.189,183.57 
		84.378,183.57 86.603,177.461 88.81,183.57 88.997,183.57 91.727,176.037 90.77,176.037 88.938,181.185 	"/>
	<path fill="#FFFFFF" d="M93.436,180.845c-0.711,0.285-1.509,0.578-1.509,1.554c0,0.636,0.433,1.204,1.083,1.204
		c0.407,0,0.809-0.165,1.191-0.504c0.078,0.35,0.287,0.504,0.671,0.504c0.274,0,0.442-0.086,0.847-0.383v-0.591
		c-0.195,0.166-0.372,0.264-0.463,0.264c-0.11,0-0.167-0.066-0.167-0.253v-2.528c0-1.117-0.709-1.624-1.606-1.624
		c-0.641,0-1.124,0.219-1.465,0.67v1.063c0.421-0.561,0.913-0.81,1.399-0.81c0.529,0,0.797,0.248,0.797,0.862v0.263L93.436,180.845z
		 M94.213,182.508c-0.237,0.253-0.496,0.404-0.769,0.404c-0.367,0-0.632-0.284-0.632-0.689c0-0.579,0.652-0.867,1.401-1.15V182.508z
		"/>
	<path fill="#FFFFFF" d="M100.726,183.506v-3.035c0-1.346-0.671-1.983-1.506-1.983c-0.494,0-0.985,0.276-1.321,0.746H97.88v-0.644
		h-0.878v4.917h0.878v-3.528c0.412-0.512,0.718-0.712,1.102-0.712c0.533,0,0.866,0.473,0.866,1.193v3.047H100.726z"/>
	<path fill="#FFFFFF" d="M103.616,180.845c-0.708,0.285-1.508,0.578-1.508,1.554c0,0.636,0.435,1.204,1.085,1.204
		c0.403,0,0.807-0.165,1.191-0.504c0.079,0.35,0.287,0.504,0.668,0.504c0.278,0,0.444-0.086,0.849-0.383v-0.591
		c-0.199,0.166-0.372,0.264-0.464,0.264c-0.107,0-0.167-0.066-0.167-0.253v-2.528c0-1.117-0.709-1.624-1.604-1.624
		c-0.643,0-1.124,0.219-1.469,0.67v1.063c0.425-0.561,0.917-0.81,1.398-0.81c0.532,0,0.797,0.248,0.797,0.862v0.263L103.616,180.845
		z M104.393,182.508c-0.236,0.253-0.491,0.404-0.768,0.404c-0.364,0-0.63-0.284-0.63-0.689c0-0.579,0.653-0.867,1.399-1.15V182.508z
		"/>
	<path fill="#FFFFFF" d="M110.909,183.506v-3.035c0-1.346-0.671-1.983-1.51-1.983c-0.492,0-0.983,0.276-1.319,0.746h-0.021v-0.644
		h-0.877v4.917h0.877v-3.528c0.414-0.512,0.722-0.712,1.105-0.712c0.533,0,0.866,0.473,0.866,1.193v3.047H110.909z"/>
	<path fill="#FFFFFF" d="M116.181,178.59h-1.819c-1.195,0-1.933,0.644-1.933,1.696c0,0.362,0.081,0.67,0.235,0.921
		c0.167,0.265,0.415,0.474,0.743,0.626v0.024c-0.428,0.11-0.703,0.384-0.703,0.7c0,0.219,0.138,0.417,0.444,0.624
		c-0.767,0.208-1.114,0.635-1.114,1.354c0,0.865,0.848,1.488,2.038,1.488c1.312,0,2.09-0.591,2.09-1.565
		c0-0.622-0.333-1.157-1.279-1.366c-0.89-0.195-1.351-0.36-1.351-0.633c0-0.581,1.202-0.231,1.79-0.933
		c0.208-0.233,0.416-0.704,0.416-1.107c0-0.417-0.118-0.692-0.464-1.077h0.907V178.59z M113.865,183.749
		c0.542,0,1.45,0.163,1.45,0.787c0,0.449-0.454,0.711-1.223,0.711c-0.796,0-1.229-0.262-1.229-0.756
		C112.863,184.055,113.274,183.749,113.865,183.749 M114.104,181.218c-0.537,0-0.89-0.363-0.89-0.9c0-0.482,0.397-0.885,0.877-0.885
		c0.465,0,0.856,0.393,0.856,0.863C114.948,180.836,114.596,181.218,114.104,181.218"/>
	<path fill="#FFFFFF" d="M118.529,180.845c-0.712,0.285-1.508,0.578-1.508,1.554c0,0.636,0.433,1.204,1.085,1.204
		c0.402,0,0.805-0.165,1.189-0.504c0.079,0.35,0.289,0.504,0.671,0.504c0.277,0,0.443-0.086,0.848-0.383v-0.591
		c-0.199,0.166-0.374,0.264-0.465,0.264c-0.107,0-0.166-0.066-0.166-0.253v-2.528c0-1.117-0.711-1.624-1.607-1.624
		c-0.64,0-1.122,0.219-1.466,0.67v1.063c0.423-0.561,0.917-0.81,1.397-0.81c0.532,0,0.797,0.248,0.797,0.862v0.263L118.529,180.845z
		 M119.304,182.508c-0.234,0.253-0.49,0.404-0.767,0.404c-0.364,0-0.632-0.284-0.632-0.689c0-0.579,0.651-0.867,1.398-1.15V182.508z
		"/>
	<path fill="#FFFFFF" d="M127.446,183.603c1.416,0,2.395-1.051,2.395-2.605c0-1.456-1.007-2.509-2.395-2.509
		c-1.322,0-2.334,1.095-2.334,2.509C125.112,182.508,126.087,183.603,127.446,183.603 M127.436,179.367
		c0.878,0,1.511,0.689,1.511,1.643c0,1.062-0.585,1.718-1.511,1.718c-0.848,0-1.43-0.69-1.43-1.73
		C126.006,180.055,126.61,179.367,127.436,179.367"/>
	<polygon fill="#FFFFFF" points="136.204,183.506 136.204,177.001 138.532,177.001 138.532,176.037 132.917,176.037 
		132.917,177.001 135.241,177.001 135.241,183.506 	"/>
	<path fill="#FFFFFF" d="M139.753,180.845c-0.71,0.285-1.508,0.578-1.508,1.554c0,0.636,0.435,1.204,1.084,1.204
		c0.402,0,0.807-0.165,1.193-0.504c0.076,0.35,0.286,0.504,0.67,0.504c0.272,0,0.444-0.086,0.845-0.383v-0.591
		c-0.198,0.166-0.374,0.264-0.46,0.264c-0.113,0-0.169-0.066-0.169-0.253v-2.528c0-1.117-0.713-1.624-1.607-1.624
		c-0.644,0-1.121,0.219-1.468,0.67v1.063c0.423-0.561,0.919-0.81,1.399-0.81c0.531,0,0.797,0.248,0.797,0.862v0.263L139.753,180.845
		z M140.528,182.508c-0.234,0.253-0.49,0.404-0.769,0.404c-0.364,0-0.63-0.284-0.63-0.689c0-0.579,0.651-0.867,1.399-1.15V182.508z"
		/>
	<path fill="#FFFFFF" d="M150.068,183.506v-3.087c0-1.16-0.569-1.931-1.465-1.931c-0.636,0-1.097,0.407-1.48,0.888
		c-0.299-0.578-0.759-0.888-1.322-0.888c-0.417,0-0.84,0.244-1.29,0.746v-0.644h-0.878v4.917h0.878v-3.571
		c0.367-0.469,0.66-0.625,1.104-0.625c0.435,0,0.797,0.34,0.797,1.14v3.055h0.873v-3.571c0.318-0.363,0.703-0.634,0.986-0.625
		c0.508,0,0.923,0.406,0.923,1.148v3.047H150.068z"/>
	<path fill="#FFFFFF" d="M153.268,180.845c-0.707,0.285-1.503,0.578-1.503,1.554c0,0.636,0.43,1.204,1.082,1.204
		c0.407,0,0.808-0.165,1.197-0.504c0.072,0.35,0.283,0.504,0.666,0.504c0.273,0,0.445-0.086,0.847-0.383v-0.591
		c-0.199,0.166-0.374,0.264-0.465,0.264c-0.11,0-0.165-0.066-0.165-0.253v-2.528c0-1.117-0.713-1.624-1.607-1.624
		c-0.635,0-1.125,0.219-1.467,0.67v1.063c0.422-0.561,0.915-0.81,1.401-0.81c0.528,0,0.797,0.248,0.797,0.862v0.263L153.268,180.845
		z M154.051,182.508c-0.238,0.253-0.493,0.404-0.773,0.404c-0.362,0-0.624-0.284-0.624-0.689c0-0.579,0.649-0.867,1.397-1.15
		V182.508z"/>
	<polygon fill="#FFFFFF" points="160.059,178.59 158.1,180.997 160.314,183.506 161.502,183.506 159.215,180.997 161.107,178.59 	
		"/>
	<rect x="157.186" y="176.037" fill="#FFFFFF" width="0.877" height="7.469"/>
	<path fill="#FFFFFF" d="M163.235,176.519c-0.287,0-0.524,0.263-0.524,0.581c0,0.316,0.237,0.581,0.524,0.581
		c0.283,0,0.52-0.264,0.52-0.581C163.756,176.782,163.518,176.519,163.235,176.519"/>
	<rect x="162.791" y="178.59" fill="#FFFFFF" width="0.876" height="4.917"/>
	<polygon fill="#FFFFFF" points="175.748,183.506 175.748,176.037 174.855,176.037 172.617,179.104 170.388,176.037 
		169.482,176.037 169.482,183.506 170.447,183.506 170.447,177.693 170.468,177.693 172.534,180.581 172.699,180.581 
		174.762,177.693 174.78,177.693 174.78,183.506 	"/>
	<path fill="#FFFFFF" d="M179.076,180.845c-0.707,0.285-1.506,0.578-1.506,1.554c0,0.636,0.437,1.204,1.087,1.204
		c0.402,0,0.807-0.165,1.189-0.504c0.079,0.35,0.289,0.504,0.67,0.504c0.279,0,0.447-0.086,0.848-0.383v-0.591
		c-0.198,0.166-0.373,0.264-0.46,0.264c-0.109,0-0.168-0.066-0.168-0.253v-2.528c0-1.117-0.709-1.624-1.607-1.624
		c-0.644,0-1.122,0.219-1.468,0.67v1.063c0.423-0.561,0.916-0.81,1.399-0.81c0.534,0,0.797,0.248,0.797,0.862v0.263L179.076,180.845
		z M179.855,182.508c-0.235,0.253-0.49,0.404-0.769,0.404c-0.362,0-0.63-0.284-0.63-0.689c0-0.579,0.65-0.867,1.399-1.15V182.508z"
		/>
	<polygon fill="#FFFFFF" points="185.868,178.59 183.908,180.997 186.127,183.506 187.305,183.506 185.022,180.997 186.909,178.59 	
		"/>
	<rect x="182.99" y="176.037" fill="#FFFFFF" width="0.88" height="7.469"/>
	<path fill="#FFFFFF" d="M188.301,179.158v1.063c0.422-0.561,0.918-0.81,1.401-0.81c0.531,0,0.797,0.248,0.797,0.862v0.263
		l-0.779,0.308c-0.711,0.285-1.51,0.578-1.51,1.554c0,0.636,0.437,1.204,1.087,1.204c0.406,0,0.807-0.165,1.193-0.504
		c0.076,0.35,0.286,0.504,0.67,0.504c0.274,0,0.444-0.086,0.846-0.383v-0.591c-0.195,0.166-0.374,0.264-0.465,0.264
		c-0.107,0-0.165-0.066-0.165-0.253v-2.528c0-1.117-0.712-1.624-1.608-1.624C189.129,178.488,188.647,178.707,188.301,179.158
		 M190.499,182.508c-0.238,0.253-0.493,0.404-0.769,0.404c-0.363,0-0.632-0.284-0.632-0.689c0-0.579,0.649-0.867,1.401-1.15V182.508
		z"/>
	<path fill="#FFFFFF" d="M197.328,183.506v-4.917h-0.878v3.513c-0.283,0.45-0.66,0.692-1.056,0.692
		c-0.596,0-0.903-0.396-0.903-1.083v-3.122h-0.877v3.055c0,1.248,0.629,1.958,1.527,1.958c0.432,0,0.946-0.281,1.309-0.722v0.626
		H197.328z"/>
	<path fill="#FFFFFF" d="M199.487,178.59v4.917h0.881v-2.574c0-0.844,0.471-1.51,1.076-1.51c0.203,0,0.55,0.197,0.816,0.479
		l0.46-0.842c-0.363-0.384-0.698-0.571-1.056-0.571c-0.411,0-0.835,0.365-1.279,1.228h-0.016v-1.127H199.487z"/>
	<path fill="#FFFFFF" d="M205.336,180.845c-0.713,0.285-1.51,0.578-1.51,1.554c0,0.636,0.434,1.204,1.085,1.204
		c0.407,0,0.807-0.165,1.19-0.504c0.077,0.35,0.287,0.504,0.676,0.504c0.268,0,0.439-0.086,0.841-0.383v-0.591
		c-0.195,0.166-0.374,0.264-0.462,0.264c-0.111,0-0.168-0.066-0.168-0.253v-2.528c0-1.117-0.709-1.624-1.604-1.624
		c-0.639,0-1.125,0.219-1.467,0.67v1.063c0.419-0.561,0.915-0.81,1.401-0.81c0.528,0,0.793,0.248,0.793,0.862v0.263L205.336,180.845
		z M206.112,182.508c-0.238,0.253-0.493,0.404-0.765,0.404c-0.367,0-0.632-0.284-0.632-0.689c0-0.579,0.649-0.867,1.397-1.15
		V182.508z"/>
	<path fill="#FFFFFF" d="M212.941,183.506v-4.917h-0.877v3.513c-0.283,0.45-0.661,0.692-1.052,0.692
		c-0.602,0-0.909-0.396-0.909-1.083v-3.122h-0.877v3.055c0,1.248,0.628,1.958,1.528,1.958c0.435,0,0.946-0.281,1.31-0.722v0.626
		H212.941z"/>
	<rect x="92.09" y="177.361" fill="#FFFFFF" width="2.532" height="0.5"/>
	<rect x="138.483" y="177.361" fill="#FFFFFF" width="2.536" height="0.5"/>
	<polygon fill="#FFFFFF" points="70.585,140.429 65.454,140.429 65.454,136.836 70.256,136.836 70.256,134.687 65.454,134.687 
		65.454,131.22 70.428,131.22 70.428,129.073 63.304,129.073 63.304,142.575 70.585,142.578 	"/>
	<polygon fill="#FFFFFF" points="132.691,131.22 132.691,129.073 125.571,129.073 125.571,142.576 132.848,142.578 132.848,140.428 
		127.714,140.428 127.714,136.836 132.523,136.836 132.523,134.687 127.714,134.687 127.714,131.22 	"/>
	<polygon fill="#FFFFFF" points="51.326,136.897 57.467,136.897 57.467,142.575 59.619,142.575 59.619,129.073 57.467,129.073 
		57.467,134.754 51.326,134.754 51.326,129.073 49.174,129.073 49.174,142.575 51.326,142.575 	"/>
	<path fill="#FFFFFF" d="M83.604,142.749c1.763,0,3.138-0.515,4.087-1.527c0.887-0.949,1.358-2.335,1.358-4.003v-8.147h-2.152v7.822
		c0,1.375-0.198,2.161-0.678,2.697c-0.329,0.364-1.1,0.971-2.582,0.971c-0.958,0-1.728-0.338-2.359-1.029
		c-0.492-0.556-0.643-1.144-0.643-2.523v-7.935l-2.149-0.003v8.336c0,1.707,0.549,3.11,1.588,4.058
		C80.983,142.293,82.231,142.749,83.604,142.749"/>
	<path fill="#FFFFFF" d="M103.473,142.575v-13.502h-2.05v9.657c-0.189-0.241-7.603-9.657-7.603-9.657h-1.684v13.502h2.045v-9.596
		c0.195,0.244,7.505,9.596,7.505,9.596H103.473z"/>
	<path fill="#FFFFFF" d="M122.883,129.073h-2.164c0,0-3.255,8.485-3.354,8.742c-0.099-0.257-3.365-8.742-3.365-8.742h-2.182
		l5.256,13.616l0.666,0.003L122.883,129.073z"/>
	<path fill="#FFFFFF" d="M143.867,142.576h2.577l-0.355-0.541c-0.71-1.088-1.003-1.536-1.472-2.382
		c-0.41-0.745-0.829-1.515-1.254-2.141c-0.378-0.552-0.742-0.971-1.137-1.314c1.137-0.643,1.766-1.789,1.766-3.24
		c0-1.172-0.384-2.155-1.112-2.839c-0.721-0.683-1.748-1.044-2.972-1.044h-3.197v13.505l2.153-0.003v-5.661h0.474
		c0.736,0,1.376,0.207,2.915,2.868L143.867,142.576z M141.79,132.933c0,0.565-0.154,1.001-0.454,1.312
		c-0.343,0.349-0.893,0.526-1.62,0.526h-0.853v-3.63h0.853c1.402,0,2.059,0.553,2.074,1.742V132.933z"/>
	<path fill="#FFFFFF" d="M151.801,131.22c0.901,0,1.774,0.433,2.583,1.286l0.309,0.326l0.096,0.099v-2.821l-0.027-0.018
		l-0.069-0.055c-0.853-0.628-1.803-0.962-2.758-0.962c-1.116,0-2.07,0.352-2.745,1.012c-0.681,0.663-1.042,1.599-1.042,2.702
		c0,1.871,1.301,2.906,2.639,3.808l0.326,0.221l0.599,0.414c0.346,0.247,0.587,0.445,0.785,0.64c0.498,0.48,0.727,0.953,0.727,1.492
		c0,0.546-0.46,1.417-1.684,1.417c-1.059,0-2.094-0.637-2.903-1.795l-0.323-0.46l-0.102-0.145l0.067,3.269l0.017,0.018
		c1.027,0.858,2.114,1.259,3.433,1.259c0.983,0,1.878-0.384,2.527-1.079c0.637-0.69,0.995-1.644,0.995-2.693
		c0-2.22-1.367-3.287-2.647-4.119l-0.931-0.587c-0.334-0.219-0.584-0.402-0.785-0.573c-0.497-0.431-0.715-0.841-0.715-1.335
		C150.173,131.761,150.845,131.22,151.801,131.22"/>
	<path fill="#FFFFFF" d="M179.489,142.581h2.149v-7.048c0.021-0.029,4.573-6.461,4.573-6.461h-2.601c0,0-2.976,4.198-3.06,4.323
		c-0.087-0.125-3.031-4.32-3.031-4.32l-2.604-0.003c0,0,4.555,6.414,4.573,6.443V142.581z"/>
	<rect x="107.001" y="129.073" fill="#FFFFFF" width="2.147" height="13.502"/>
	<rect x="158.972" y="129.073" fill="#FFFFFF" width="2.152" height="13.502"/>
	<polygon fill="#FFFFFF" points="41.242,142.575 43.394,142.575 43.394,131.22 47.452,131.22 47.452,129.073 37.181,129.073 
		37.181,131.22 41.242,131.22 	"/>
	<polygon fill="#FFFFFF" points="167.913,142.575 170.059,142.575 170.059,131.22 174.12,131.22 174.12,129.073 163.85,129.073 
		163.85,131.22 167.913,131.22 	"/>
	<polygon fill="#FFFFFF" points="208.07,136.423 212.59,136.423 212.59,134.309 208.07,134.309 208.07,131.191 212.59,131.191 
		212.59,129.073 205.944,129.073 205.944,142.412 208.07,142.412 	"/>
	<path fill="#FFFFFF" d="M196.924,142.757c1.925,0,3.58-0.721,4.782-2.08c1.109-1.258,1.721-2.945,1.721-4.762
		c0-1.844-0.621-3.552-1.745-4.804c-1.192-1.331-2.831-2.037-4.724-2.037c-1.839,0-3.502,0.727-4.689,2.046
		c-1.135,1.262-1.759,2.965-1.759,4.796c0,1.811,0.612,3.504,1.727,4.768C193.415,142.018,195.082,142.757,196.924,142.757
		 M193.906,132.552c0.782-0.85,1.865-1.319,3.052-1.319c2.489,0,4.291,1.968,4.291,4.68c0,1.305-0.435,2.501-1.224,3.357
		c-0.785,0.856-1.877,1.325-3.067,1.325c-1.181,0-2.267-0.469-3.052-1.325c-0.79-0.859-1.221-2.052-1.221-3.357
		C192.685,134.604,193.116,133.409,193.906,132.552"/>
	<path fill="#FFFFFF" d="M155.863,147.917h-2.557l-8.867,23.051h3.773c0,0,2.463-6.409,2.508-6.522h7.944
		c0.044,0.113,2.646,6.522,2.646,6.522h3.777L155.863,147.917z M152.126,160.808c0.089-0.237,2.276-6.118,2.424-6.537
		c0.173,0.414,2.533,6.295,2.617,6.537H152.126z"/>
	<polygon fill="#FFFFFF" points="141.244,167.325 132.239,167.325 132.239,148.05 128.59,148.05 128.59,170.969 141.244,170.969 	
		"/>
	<path fill="#FFFFFF" d="M43.384,164.447h7.939c0.045,0.113,2.661,6.522,2.661,6.522h3.767l-9.218-23.052h-2.563l-8.867,23.052
		h3.777C40.881,170.969,43.345,164.56,43.384,164.447 M47.226,154.271c0.163,0.415,2.518,6.295,2.612,6.537h-5.036
		C44.881,160.571,47.067,154.69,47.226,154.271"/>
	<path fill="#FFFFFF" d="M101.263,169.147v-4.468l-0.153,0.103l-0.479,0.341c-2.162,1.571-4.547,2.43-6.715,2.43
		c-2.237,0-4.152-0.76-5.544-2.217c-1.392-1.446-2.118-3.456-2.118-5.792c0-2.261,0.76-4.315,2.152-5.791
		c1.388-1.475,3.298-2.286,5.387-2.286c2.211,0,4.266,0.697,6.655,2.236l0.464,0.301l0.152,0.099l-0.178-4.464l-0.059-0.024
		c-2.794-1.303-4.887-1.861-7.001-1.861c-6.551,0-11.311,5.081-11.311,12.081c0,2.627,0.988,5.431,2.652,7.505
		c1.441,1.792,4.078,3.924,8.481,3.924c3.491,0,5.698-1.006,7.564-2.093L101.263,169.147z"/>
	<path fill="#FFFFFF" d="M113.808,158.908c0.103-0.125,8.99-10.858,8.99-10.858h-4.596c0,0-7.479,9.045-7.791,9.426v-9.426h-3.648
		v22.919h3.648V160.64c0.306,0.336,9.569,10.329,9.569,10.329h5.006C124.986,170.969,113.917,159.025,113.808,158.908"/>
	<path fill="#FFFFFF" d="M211.12,151.768c-1.989-2.434-4.878-3.718-8.359-3.718h-8.137v22.919h8.166
		c3.209,0,5.993-1.225,8.042-3.535c1.852-2.098,2.919-4.987,2.919-7.925C213.751,156.636,212.793,153.807,211.12,151.768
		 M202.435,167.325h-4.162v-15.636h4.02c2.478,0,4.502,0.805,5.85,2.311c1.224,1.368,1.876,3.274,1.876,5.509
		C210.019,162.412,208.414,167.325,202.435,167.325"/>
	<path fill="#FFFFFF" d="M69.018,171.265c3.002,0,5.327-0.874,6.937-2.587c1.511-1.614,2.305-3.96,2.305-6.799v-13.824h-3.648
		v13.275c0,2.336-0.336,3.659-1.155,4.572c-0.558,0.612-1.861,1.649-4.379,1.649c-1.629,0-2.942-0.568-4.004-1.747
		c-0.834-0.938-1.096-1.936-1.096-4.285v-13.463l-3.644-0.005v14.159c0,2.894,0.933,5.273,2.696,6.882
		C64.57,170.49,66.693,171.265,69.018,171.265"/>
	<path fill="#FFFFFF" d="M185.17,164.447c-0.326-0.41-12.906-16.391-12.906-16.391l-2.864-0.005v22.918h3.471v-16.283
		c0.326,0.415,12.743,16.288,12.743,16.288h3.037v-22.918h-3.481V164.447z"/>
	<polygon fill="#FFFFFF" points="44.474,200.627 38.92,194.103 37.334,194.103 37.334,203.451 39.1,203.451 39.1,196.82 
		44.688,203.451 46.241,203.451 46.241,194.103 44.474,194.103 	"/>
	<polygon fill="#FFFFFF" points="57.504,199.382 61.56,199.382 61.56,197.971 57.504,197.971 57.504,195.515 61.74,195.515 
		61.74,194.102 55.698,194.102 55.698,203.452 61.834,203.452 61.834,202.04 57.504,202.04 	"/>
	<polygon fill="#FFFFFF" points="80.578,199.891 78.116,194.102 76.59,194.102 74.141,199.871 71.812,194.102 69.945,194.102 
		73.799,203.572 74.388,203.572 77.346,196.638 80.291,203.572 80.899,203.572 84.748,194.102 82.901,194.102 	"/>
	<polygon fill="#FFFFFF" points="112.132,194.102 103.907,194.102 103.907,195.515 109.02,195.515 103.579,203.452 112.158,203.452 
		112.158,202.039 106.684,202.039 	"/>
	<polygon fill="#FFFFFF" points="122.738,199.382 126.794,199.382 126.794,197.971 122.738,197.971 122.738,195.515 
		126.975,195.515 126.975,194.102 120.932,194.102 120.932,203.452 127.069,203.452 127.069,202.04 122.738,202.04 	"/>
	<path fill="#FFFFFF" d="M139.047,194.103l-3.854,9.349h1.893l0.903-2.276h4.156l0.97,2.276h1.908l-4.128-9.349H139.047z
		 M138.538,199.804l1.439-3.701l1.579,3.701H138.538z"/>
	<polygon fill="#FFFFFF" points="155.329,194.102 153.522,194.102 153.522,203.452 159.866,203.452 159.866,202.039 
		155.329,202.039 	"/>
	<path fill="#FFFFFF" d="M171.396,194.103l-3.855,9.349h1.894l0.903-2.276h4.156l0.971,2.276h1.907l-4.128-9.349H171.396z
		 M170.888,199.804l1.438-3.701l1.58,3.701H170.888z"/>
	<polygon fill="#FFFFFF" points="193.012,200.627 187.457,194.103 185.871,194.103 185.871,203.451 187.638,203.451 187.638,196.82 
		193.226,203.451 194.779,203.451 194.779,194.103 193.012,194.103 	"/>
	<path fill="#FFFFFF" d="M210.746,194.698c-0.758-0.397-1.624-0.595-2.596-0.595h-3.914v9.349h3.807
		c1.004,0,1.894-0.195,2.671-0.582c0.776-0.389,1.375-0.936,1.797-1.644c0.422-0.707,0.632-1.518,0.632-2.433
		c0-0.897-0.21-1.704-0.629-2.423C212.094,195.653,211.505,195.095,210.746,194.698 M210.368,201.139
		c-0.604,0.601-1.407,0.9-2.405,0.9h-1.921v-6.525h1.861c1.029,0,1.85,0.292,2.459,0.877c0.608,0.585,0.913,1.381,0.913,2.389
		C211.275,199.753,210.972,200.539,210.368,201.139"/>
	<rect x="37.24" y="189.358" fill="#FFFFFF" width="176.32" height="1.029"/>
	<path fill="#FFFFFF" d="M89.885,38.528v35.939c0,8.452,6.316,33.032,35.157,45.101l0.471,0.196l0.471-0.197
		c28.828-12.063,35.14-36.646,35.14-45.1V38.528H89.885z M137.508,53c0.525-1.428,1.77-3.393,3.128-5.141
		c-0.513-2.941,2.196-3.918,3.248-3.881c1.09,0.024,1.856,0.732,1.986,0.951c1.256-1.471,2.886-1.624,3.627-1.66
		c5.291-0.164,7.971,3.795,7.852,6.96c-0.131,3.612-2.87,4.454-3.242,4.557c0,0-0.044,0.784,0.566,1.838
		c0.04,0.076,0.163,0.169,0.044,0.373c-0.016,0.044-0.123,0.238-0.151,0.275c-0.024,0.035-0.072,0.148-0.036,0.284
		c0.068,0.233-0.019,0.515-0.194,0.838c-0.131,0.293,0.02,1.025,0.091,1.52c0.018,0.104-0.056,0.108-0.122,0.032
		c-0.337-0.215-0.595-0.891-0.678-1.265c-0.642,0.169-1.388,1.113-1.636,1.664c-0.024,0.078-0.16,0.159-0.182-0.014
		c-0.014-0.044-0.137-1.105,0.888-1.877c-0.519-0.164-1.06,0.089-1.428,0.287c-0.024,0.026-0.179,0.094-0.064-0.072
		c0.025-0.037,0.321-0.71,1.697-0.905c0.016-0.048,0.303-0.5,0.42-0.848c-0.032-0.515-0.298-1.16-0.625-1.76
		c-0.049,0.003-1.028,0.085-1.718,0.617c-0.045,0.028-0.135,0.119-0.135,0.254v0.296c0.012,0.042-0.048,0.315-0.4,0.428
		c-0.031,0.029-1.191,0.396-1.744,0.657c-0.028,0.025-0.525,0.241-0.888,0.754c-0.079,0.082-0.372,0.534-0.79,0.673
		c-0.107,0.023-0.331,0.129-0.494,0.292c-0.163,0.164-0.313,0.327-0.451,0.414c-0.141,0.088-0.452,0.426-0.679,0.891
		c-0.036,0.064-0.099,0.15-0.103,0c-0.015-0.191,0.008-0.432,0.004-0.436c0.13-0.584,0.396-0.882,0.63-1.138
		c-0.091-0.026-0.077-0.009-0.172-0.06c-0.422,0.051-1.747-0.069-2.542,0.319c-0.059,0.031-0.119,0.02-0.059-0.063
		c0.148-0.201,0.444-0.97,2.231-1.01c0.026-0.169-0.801-0.57-1.217-0.57c-0.127,0-0.049-0.072,0-0.092
		c0.094-0.043,0.883-0.382,1.812,0.224c0.043-0.027,0.671-0.255,1.028-0.285c0.43-0.321,1.389-1.281,1.774-1.432
		c-0.004-0.056-0.034-0.262,0.014-0.467l-0.047-0.011c-0.5-0.707-0.577-1.751-0.557-2.326c-1.027-0.097-2.125-1.014-2.707-1.756
		c-0.747-0.05-2.224-0.684-3.02-2.284c-2.695,1.941-4.455,5.395-4.551,5.555c-0.063,0.05-0.1,0.05-0.15,0.013
		C137.473,54.076,137.412,53.256,137.508,53 M115.332,53c0.523-1.428,1.772-3.393,3.125-5.141c-0.511-2.941,2.198-3.918,3.25-3.881
		c1.09,0.024,1.854,0.732,1.989,0.951c1.249-1.471,2.881-1.624,3.627-1.66c5.284-0.164,7.97,3.795,7.847,6.96
		c-0.133,3.612-2.868,4.454-3.241,4.557c0,0-0.044,0.784,0.567,1.838c0.039,0.076,0.158,0.169,0.044,0.373
		c-0.016,0.044-0.124,0.238-0.151,0.275c-0.028,0.035-0.074,0.148-0.037,0.284c0.068,0.233-0.023,0.515-0.194,0.838
		c-0.134,0.293,0.021,1.025,0.092,1.52c0.018,0.104-0.059,0.108-0.123,0.032c-0.335-0.215-0.595-0.891-0.677-1.265
		c-0.646,0.169-1.388,1.113-1.638,1.664c-0.024,0.078-0.158,0.159-0.185-0.014c-0.01-0.044-0.136-1.105,0.893-1.877
		c-0.521-0.164-1.06,0.089-1.427,0.287c-0.027,0.026-0.18,0.094-0.064-0.072c0.021-0.037,0.32-0.71,1.692-0.905
		c0.017-0.048,0.303-0.5,0.426-0.848c-0.034-0.515-0.304-1.16-0.626-1.76c-0.053,0.003-1.029,0.085-1.72,0.617
		c-0.044,0.028-0.132,0.119-0.132,0.254v0.296c0.011,0.042-0.049,0.315-0.405,0.428c-0.032,0.029-1.19,0.396-1.737,0.657
		c-0.032,0.025-0.529,0.241-0.893,0.754c-0.076,0.082-0.367,0.534-0.789,0.673c-0.107,0.023-0.33,0.129-0.493,0.292
		c-0.163,0.164-0.313,0.327-0.453,0.414c-0.136,0.088-0.453,0.426-0.676,0.891c-0.034,0.064-0.101,0.15-0.104,0
		c-0.017-0.191,0.009-0.432,0.003-0.436c0.136-0.584,0.403-0.882,0.634-1.138c-0.091-0.026-0.08-0.009-0.175-0.06
		c-0.421,0.051-1.746-0.069-2.543,0.319c-0.059,0.031-0.117,0.02-0.059-0.063c0.149-0.201,0.445-0.97,2.231-1.01
		c0.024-0.169-0.797-0.57-1.213-0.57c-0.128,0-0.055-0.072,0-0.092c0.096-0.043,0.88-0.382,1.812,0.224
		c0.042-0.027,0.67-0.255,1.025-0.285c0.435-0.321,1.391-1.281,1.773-1.432c-0.003-0.056-0.034-0.262,0.016-0.467l-0.051-0.011
		c-0.495-0.707-0.577-1.751-0.556-2.326c-1.025-0.097-2.123-1.014-2.708-1.756c-0.746-0.05-2.223-0.684-3.016-2.284
		c-2.701,1.941-4.459,5.395-4.558,5.555c-0.058,0.05-0.093,0.05-0.144,0.013C115.297,54.076,115.234,53.256,115.332,53 M93.019,53
		c0.526-1.428,1.77-3.393,3.124-5.141c-0.513-2.941,2.197-3.918,3.246-3.881c1.094,0.024,1.855,0.732,1.99,0.951
		c1.25-1.471,2.88-1.624,3.628-1.66c5.285-0.164,7.967,3.795,7.85,6.96c-0.135,3.612-2.87,4.454-3.242,4.557
		c0,0-0.047,0.784,0.567,1.838c0.039,0.076,0.157,0.169,0.043,0.373c-0.02,0.044-0.122,0.238-0.152,0.275
		c-0.022,0.035-0.073,0.148-0.032,0.284c0.064,0.233-0.023,0.515-0.199,0.838c-0.133,0.293,0.022,1.025,0.097,1.52
		c0.012,0.104-0.061,0.108-0.126,0.032c-0.338-0.215-0.595-0.891-0.683-1.265c-0.639,0.169-1.379,1.113-1.632,1.664
		c-0.02,0.078-0.158,0.159-0.181-0.014c-0.01-0.044-0.137-1.105,0.888-1.877c-0.519-0.164-1.06,0.089-1.425,0.287
		c-0.027,0.026-0.18,0.094-0.065-0.072c0.023-0.037,0.32-0.71,1.693-0.905c0.018-0.048,0.305-0.5,0.425-0.848
		c-0.037-0.515-0.304-1.16-0.628-1.76c-0.051,0.003-1.029,0.085-1.718,0.617c-0.045,0.028-0.132,0.119-0.132,0.254v0.296
		c0.01,0.042-0.052,0.315-0.404,0.428c-0.031,0.029-1.19,0.396-1.742,0.657c-0.029,0.025-0.525,0.241-0.889,0.754
		c-0.078,0.082-0.369,0.534-0.793,0.673c-0.102,0.023-0.331,0.129-0.491,0.292c-0.164,0.164-0.313,0.327-0.452,0.414
		c-0.14,0.088-0.452,0.426-0.676,0.891c-0.037,0.064-0.103,0.15-0.107,0c-0.013-0.191,0.013-0.432,0.004-0.436
		c0.134-0.584,0.401-0.882,0.631-1.138c-0.09-0.026-0.076-0.009-0.171-0.06c-0.425,0.051-1.747-0.069-2.541,0.319
		c-0.059,0.031-0.123,0.02-0.059-0.063c0.146-0.201,0.443-0.97,2.231-1.01c0.02-0.169-0.799-0.57-1.216-0.57
		c-0.13,0-0.052-0.072,0-0.092c0.094-0.043,0.881-0.382,1.814,0.224c0.039-0.027,0.668-0.255,1.027-0.285
		c0.431-0.321,1.388-1.281,1.773-1.432c-0.008-0.056-0.037-0.262,0.01-0.467l-0.047-0.011c-0.501-0.707-0.577-1.751-0.556-2.326
		c-1.025-0.097-2.126-1.014-2.71-1.756c-0.743-0.05-2.224-0.684-3.014-2.284c-2.701,1.941-4.456,5.395-4.554,5.555
		c-0.063,0.05-0.098,0.05-0.146,0.013C92.979,54.076,92.92,53.256,93.019,53 M125.381,118.76
		c-13.304-5.567-23.105-14.161-29.131-25.544c-4.343-8.203-5.49-15.852-5.49-18.75v-14.34l0.73-0.045
		c0.125-0.013,0.227-0.024,0.419-0.024c0.139,0,0.277,0.009,0.415,0.013c1.803,0.066,3.565,0.553,5.136,1.431l0.002-0.002
		l0.22,0.113c3.275,1.933,7.574,1.935,10.84,0.01l0.164-0.097l0.014,0.007c3.459-1.956,7.955-1.916,11.374,0.108l0.062,0.044
		c3.267,1.897,7.542,1.881,10.791-0.038l0.097-0.048c3.468-2.006,8.009-1.984,11.458,0.059c3.31,1.943,7.594,1.928,10.859,0.001
		c1.621-0.953,3.466-1.481,5.344-1.551c0.391-0.015,0.783-0.016,1.175,0.009l0.088,0.018l0.234,0.079l0.068,0.27v13.982
		c0,2.9-1.147,10.551-5.482,18.75c-6.021,11.383-15.819,19.977-29.121,25.544l-0.134,0.056L125.381,118.76z"/>
	<path fill="#FFFFFF" d="M125.191,97.759c-0.112-0.194-0.234-0.37-0.355-0.546h-1.172c-0.201,0-0.364,0.163-0.364,0.364
		c0,0.201,0.163,0.364,0.364,0.364h3.69c0.2,0,0.364-0.163,0.364-0.364c0-0.201-0.163-0.364-0.364-0.364h-1.181
		c-0.121,0.176-0.242,0.351-0.354,0.546H125.191z"/>
	<path fill="#FFFFFF" d="M106.02,94.814c3.15,1.982,6.314,2.181,9.151,0.577c2.992-1.691,7.192-1.775,9.665,1.822h0.306v-0.815
		c-2.753-3.566-7.162-3.432-10.328-1.64c-2.539,1.437-5.385,1.278-8.237-0.454v-15.34l-0.727,0.366v15.177L106.02,94.814z"/>
	<path fill="#FFFFFF" d="M106.577,78.963l0.769-0.387v15.303l0.194,0.103c2.336,1.239,4.255,1.571,7.697-0.215
		c3.777-1.962,7.67-0.676,9.905,1.49v1.14c0.123,0.16,0.248,0.316,0.364,0.49c0.117-0.175,0.241-0.331,0.364-0.49v-1.14
		c2.234-2.169,6.124-3.455,9.904-1.49c3.442,1.786,5.361,1.454,7.697,0.215l0.193-0.103V78.577l0.77,0.387V78.8
		c0-0.078,0.03-0.147,0.072-0.207l-1.62-0.815c-2.556,0.612-4.456,0.483-7.167-0.666c-3.277-1.385-6.754-1-10.213,1.432
		c-3.461-2.433-6.94-2.818-10.215-1.432c-2.715,1.149-4.611,1.278-7.168,0.666l-1.619,0.815c0.043,0.059,0.073,0.129,0.073,0.207
		V78.963z M125.869,78.735c3.228-2.212,6.493-2.647,9.709-1.287c2.654,1.124,4.635,1.321,7.262,0.715l0.097,0.048v15.23
		c-2.076,1.063-3.749,1.279-6.827-0.318c-3.831-1.99-7.763-0.909-10.24,1.157V78.735z M108.073,78.21l0.095-0.048
		c2.625,0.606,4.608,0.409,7.265-0.715c3.213-1.361,6.478-0.926,9.708,1.287v15.546c-1.561-1.3-3.698-2.21-6.023-2.21
		c-1.367,0-2.799,0.315-4.217,1.051c-3.08,1.598-4.753,1.382-6.828,0.319V78.21z"/>
	<path fill="#FFFFFF" d="M144.433,94.279c-3.13,1.499-5.902,1.657-8.25,0.471c-3.114-1.574-7.521-1.967-10.314,1.649v0.815h0.306
		c2.513-3.658,6.728-3.308,9.68-1.814c2.612,1.319,5.675,1.13,9.103-0.567l0.202-0.326V79.33l-0.727-0.366V94.279z"/>
	<path fill="#FFFFFF" d="M144.433,78.964l0.727,0.366v-0.408l-0.654-0.329c-0.042,0.059-0.072,0.129-0.072,0.207V78.964z"/>
	<path fill="#FFFFFF" d="M124.836,97.213c0.121,0.176,0.242,0.352,0.355,0.546l0.629-0.001c0.112-0.194,0.233-0.369,0.354-0.545
		h-0.306v-0.815c-0.123,0.159-0.248,0.315-0.363,0.49c-0.117-0.174-0.241-0.33-0.364-0.49v0.815H124.836z"/>
	<path fill="#00467F" d="M124.836,97.213c0.121,0.176,0.242,0.352,0.355,0.546l0.629-0.001c0.112-0.194,0.233-0.369,0.354-0.545
		h-0.306v-0.815c-0.123,0.159-0.248,0.315-0.363,0.49c-0.117-0.174-0.241-0.33-0.364-0.49v0.815H124.836z"/>
	<path fill="#00467F" d="M144.433,78.264v16.015c-3.13,1.498-5.902,1.657-8.25,0.47c-3.114-1.574-7.521-1.967-10.314,1.649
		c-0.122,0.159-0.247,0.315-0.364,0.49c-0.116-0.174-0.241-0.33-0.364-0.49c-2.753-3.566-7.162-3.431-10.329-1.64
		c-2.539,1.436-5.383,1.279-8.236-0.455V76.779l-0.727,0.366v17.361l0.17,0.308c3.15,1.981,6.314,2.181,9.151,0.576
		c2.992-1.69,7.192-1.775,9.665,1.823h-1.171c-0.201,0-0.364,0.163-0.364,0.364c0,0.201,0.163,0.363,0.364,0.363h3.69
		c0.2,0,0.364-0.163,0.364-0.363c0-0.201-0.163-0.364-0.364-0.364h-1.181c2.513-3.658,6.728-3.308,9.68-1.814
		c2.612,1.319,5.675,1.13,9.103-0.567l0.202-0.326V78.63C144.95,78.592,144.433,78.264,144.433,78.264"/>
	<polygon fill="#FFFFFF" points="107.89,75.464 112.004,72.354 116.117,75.464 114.542,70.503 118.874,67.378 113.594,67.378 
		112.004,62.388 110.413,67.378 105.135,67.378 109.467,70.502 	"/>
	<polygon fill="#FFFFFF" points="134.872,75.42 138.985,72.314 143.096,75.419 141.524,70.46 145.855,67.338 140.577,67.338 
		138.985,62.348 137.394,67.338 132.118,67.338 136.449,70.46 	"/>
	<polygon fill="#FFFFFF" points="127.091,106.309 125.502,101.32 123.911,106.309 118.632,106.309 122.965,109.433 121.389,114.393 
		125.502,111.287 129.613,114.393 128.038,109.433 132.37,106.309 	"/>
	<path fill="#00467F" d="M93.422,54.598c0.099-0.159,1.854-3.613,4.554-5.554c0.79,1.6,2.272,2.234,3.014,2.283
		c0.585,0.743,1.686,1.66,2.71,1.757c-0.021,0.575,0.054,1.619,0.556,2.326l0.047,0.011c-0.047,0.206-0.018,0.411-0.01,0.468
		c-0.386,0.15-1.343,1.11-1.774,1.431c-0.358,0.029-0.987,0.257-1.026,0.285c-0.932-0.606-1.719-0.267-1.813-0.225
		c-0.052,0.021-0.131,0.093,0,0.093c0.416,0,1.236,0.401,1.215,0.57c-1.788,0.04-2.085,0.809-2.231,1.009
		c-0.064,0.084,0,0.094,0.059,0.064c0.794-0.388,2.116-0.267,2.541-0.32c0.096,0.052,0.082,0.035,0.171,0.061
		c-0.23,0.257-0.498,0.553-0.631,1.139c0.009,0.004-0.016,0.245-0.004,0.436c0.004,0.15,0.071,0.065,0.108,0
		c0.224-0.465,0.536-0.802,0.676-0.891c0.139-0.087,0.287-0.252,0.452-0.414c0.16-0.164,0.389-0.27,0.491-0.292
		c0.423-0.139,0.715-0.591,0.792-0.673c0.365-0.513,0.861-0.729,0.89-0.755c0.552-0.262,1.712-0.628,1.742-0.657
		c0.352-0.113,0.414-0.386,0.404-0.428v-0.295c0-0.136,0.086-0.227,0.132-0.255c0.69-0.532,1.668-0.614,1.718-0.617
		c0.324,0.6,0.591,1.245,0.628,1.759c-0.12,0.349-0.408,0.801-0.425,0.848c-1.373,0.194-1.67,0.869-1.693,0.906
		c-0.115,0.166,0.038,0.097,0.065,0.072c0.365-0.198,0.906-0.451,1.425-0.287c-1.025,0.772-0.898,1.833-0.888,1.877
		c0.023,0.174,0.16,0.092,0.181,0.014c0.252-0.551,0.993-1.494,1.631-1.663c0.089,0.374,0.345,1.05,0.683,1.265
		c0.065,0.076,0.138,0.072,0.126-0.032c-0.075-0.495-0.229-1.227-0.097-1.519c0.176-0.322,0.263-0.606,0.199-0.838
		c-0.041-0.136,0.01-0.249,0.032-0.284c0.031-0.037,0.133-0.231,0.152-0.276c0.115-0.203-0.004-0.296-0.043-0.372
		c-0.614-1.054-0.567-1.838-0.567-1.838c0.372-0.103,3.107-0.945,3.242-4.557c0.117-3.165-2.565-7.124-7.85-6.96
		c-0.748,0.036-2.377,0.189-3.628,1.66c-0.136-0.219-0.897-0.927-1.99-0.951c-1.05-0.037-3.76,0.94-3.247,3.881
		c-1.355,1.747-2.599,3.713-3.124,5.141c-0.099,0.256-0.04,1.075,0.257,1.611C93.323,54.648,93.359,54.648,93.422,54.598
		 M93.957,52.414c1.179-2.445,2.563-3.653,2.981-4.433c-0.905-1.951,1.452-3.393,2.503-3.233c1.44,0,1.727,1.5,1.727,1.5
		s1.288-2.099,2.943-2.149c-0.469,0.447-0.568,0.748-0.568,0.748l0.004,0.108c0,0,0.746-0.782,2.212-0.782
		c-0.521,0.361-0.736,0.722-0.736,0.722l0.013,0.053c-0.028,0.087,1.003-0.682,2.583-0.053c-0.357,0.025-0.902,0.261-0.964,0.415
		c-0.055,0.048,0.008,0.048,0.008,0.048c1.91-0.246,3.618,1.817,3.58,3.723c-0.055,1.369-0.977,2.787-2.771,3.2
		c-0.251,0.292-0.622,1.439-0.622,1.439c-0.862,0.281-1.905,1.039-2.052,1.202c0,0-0.019-0.045-0.013,0.008l-0.079-0.099
		c-0.316-0.542-0.314-2.21-0.336-2.404c-1.844,0.171-2.879-1.564-3.113-1.735c-2.076-0.132-2.978-2.477-3.135-2.599
		c-1.565,0.952-3.102,2.893-4.166,4.407C93.982,52.447,93.931,52.465,93.957,52.414"/>
	<path fill="#FFFFFF" d="M98.123,48.092c0.157,0.122,1.059,2.467,3.134,2.6c0.235,0.17,1.27,1.904,3.114,1.734
		c0.022,0.194,0.02,1.862,0.336,2.405l0.079,0.099c-0.006-0.051,0.013-0.006,0.013-0.006c0.147-0.164,1.19-0.921,2.052-1.202
		c0,0,0.372-1.147,0.622-1.44c1.793-0.413,2.716-1.831,2.77-3.2c0.038-1.905-1.669-3.969-3.58-3.723c0,0-0.063,0-0.008-0.048
		c0.061-0.155,0.607-0.39,0.964-0.415c-1.581-0.629-2.611,0.14-2.584,0.053l-0.013-0.053c0,0,0.214-0.361,0.735-0.721
		c-1.465,0-2.212,0.781-2.212,0.781l-0.004-0.108c0,0,0.099-0.301,0.567-0.747c-1.654,0.05-2.943,2.149-2.943,2.149
		s-0.287-1.502-1.728-1.502c-1.051-0.16-3.407,1.282-2.503,3.234c-0.418,0.779-1.802,1.989-2.981,4.433
		c-0.026,0.052,0.026,0.034,0,0.086C95.021,50.985,96.558,49.044,98.123,48.092 M97.796,46.742c0.243,0,0.44,0.197,0.44,0.44
		c0,0.243-0.197,0.44-0.44,0.44c-0.242,0-0.436-0.197-0.436-0.44C97.361,46.939,97.555,46.742,97.796,46.742"/>
	<path fill="#00467F" d="M97.796,47.622c0.243,0,0.44-0.197,0.44-0.44c0-0.243-0.197-0.44-0.44-0.44
		c-0.242,0-0.436,0.197-0.436,0.44C97.361,47.425,97.555,47.622,97.796,47.622"/>
	<path fill="#00467F" d="M115.733,54.598c0.099-0.159,1.857-3.613,4.557-5.554c0.793,1.6,2.27,2.234,3.017,2.283
		c0.584,0.743,1.682,1.66,2.707,1.757c-0.02,0.575,0.06,1.619,0.556,2.326l0.05,0.011c-0.05,0.206-0.019,0.411-0.015,0.468
		c-0.383,0.15-1.339,1.11-1.774,1.431c-0.355,0.029-0.983,0.257-1.025,0.285c-0.93-0.606-1.716-0.267-1.811-0.225
		c-0.055,0.021-0.128,0.093,0,0.093c0.416,0,1.237,0.401,1.213,0.57c-1.786,0.04-2.082,0.809-2.231,1.009
		c-0.059,0.084,0,0.094,0.059,0.064c0.797-0.388,2.122-0.267,2.543-0.32c0.094,0.052,0.083,0.035,0.175,0.061
		c-0.23,0.257-0.498,0.553-0.634,1.139c0.006,0.004-0.02,0.245-0.003,0.436c0.003,0.15,0.071,0.065,0.104,0
		c0.223-0.465,0.539-0.802,0.676-0.891c0.139-0.087,0.29-0.252,0.452-0.414c0.163-0.164,0.387-0.27,0.493-0.292
		c0.422-0.139,0.714-0.591,0.79-0.673c0.364-0.513,0.861-0.729,0.893-0.755c0.548-0.262,1.705-0.628,1.738-0.657
		c0.356-0.113,0.415-0.386,0.404-0.428v-0.295c0-0.136,0.09-0.227,0.133-0.255c0.692-0.532,1.667-0.614,1.72-0.617
		c0.324,0.6,0.593,1.245,0.626,1.759c-0.123,0.349-0.408,0.801-0.426,0.848c-1.372,0.194-1.67,0.869-1.692,0.906
		c-0.117,0.166,0.036,0.097,0.063,0.072c0.368-0.198,0.907-0.451,1.428-0.287c-1.029,0.772-0.903,1.833-0.893,1.877
		c0.027,0.174,0.161,0.092,0.185,0.014c0.25-0.551,0.991-1.494,1.636-1.663c0.084,0.374,0.344,1.05,0.679,1.265
		c0.063,0.076,0.14,0.072,0.122-0.032c-0.072-0.495-0.226-1.227-0.091-1.519c0.17-0.322,0.261-0.606,0.194-0.838
		c-0.038-0.136,0.008-0.249,0.036-0.284c0.027-0.037,0.135-0.231,0.15-0.276c0.115-0.203-0.004-0.296-0.043-0.372
		c-0.611-1.054-0.568-1.838-0.568-1.838c0.373-0.103,3.108-0.945,3.241-4.557c0.122-3.165-2.563-7.124-7.847-6.96
		c-0.746,0.036-2.378,0.189-3.626,1.66c-0.136-0.219-0.9-0.927-1.99-0.951c-1.051-0.037-3.76,0.94-3.249,3.881
		c-1.354,1.747-2.602,3.713-3.126,5.141c-0.097,0.256-0.034,1.075,0.257,1.611C115.639,54.648,115.674,54.648,115.733,54.598
		 M116.274,52.414c1.176-2.445,2.558-3.653,2.978-4.433c-0.904-1.951,1.451-3.393,2.501-3.233c1.441,0,1.728,1.5,1.728,1.5
		s1.289-2.099,2.941-2.149c-0.468,0.447-0.568,0.748-0.568,0.748l0.009,0.108c0,0,0.741-0.782,2.208-0.782
		c-0.519,0.361-0.732,0.722-0.732,0.722l0.011,0.053c-0.028,0.087,1.003-0.682,2.584-0.053c-0.353,0.025-0.905,0.261-0.968,0.415
		c-0.052,0.048,0.009,0.048,0.009,0.048c1.911-0.246,3.621,1.817,3.585,3.723c-0.059,1.369-0.979,2.787-2.775,3.2
		c-0.248,0.292-0.621,1.439-0.621,1.439c-0.859,0.281-1.905,1.039-2.05,1.202c0,0-0.019-0.045-0.012,0.008l-0.079-0.099
		c-0.319-0.542-0.317-2.21-0.34-2.404c-1.841,0.171-2.879-1.564-3.109-1.735c-2.077-0.132-2.981-2.477-3.139-2.599
		c-1.562,0.952-3.103,2.893-4.16,4.407C116.298,52.447,116.247,52.465,116.274,52.414"/>
	<path fill="#FFFFFF" d="M120.434,48.092c0.159,0.122,1.063,2.467,3.14,2.6c0.231,0.17,1.269,1.904,3.109,1.734
		c0.023,0.194,0.021,1.862,0.34,2.405l0.079,0.099c-0.008-0.051,0.012-0.006,0.012-0.006c0.146-0.164,1.191-0.921,2.05-1.202
		c0,0,0.373-1.147,0.621-1.44c1.796-0.413,2.715-1.831,2.775-3.2c0.036-1.905-1.674-3.969-3.585-3.723c0,0-0.061,0-0.008-0.048
		c0.062-0.155,0.614-0.39,0.967-0.415c-1.581-0.629-2.612,0.14-2.584,0.053l-0.011-0.053c0,0,0.213-0.361,0.732-0.721
		c-1.468,0-2.208,0.781-2.208,0.781l-0.009-0.108c0,0,0.099-0.301,0.568-0.747c-1.652,0.05-2.941,2.149-2.941,2.149
		s-0.286-1.502-1.728-1.502c-1.049-0.16-3.405,1.282-2.501,3.234c-0.42,0.779-1.802,1.989-2.978,4.433
		c-0.026,0.052,0.024,0.034,0,0.086C117.333,50.985,118.874,49.044,120.434,48.092 M120.114,46.742c0.241,0,0.439,0.197,0.439,0.44
		c0,0.243-0.197,0.44-0.439,0.44c-0.245,0-0.443-0.197-0.443-0.44C119.671,46.939,119.868,46.742,120.114,46.742"/>
	<path fill="#00467F" d="M120.114,47.622c0.241,0,0.439-0.197,0.439-0.44c0-0.243-0.197-0.44-0.439-0.44
		c-0.245,0-0.443,0.197-0.443,0.44C119.671,47.425,119.868,47.622,120.114,47.622"/>
	<path fill="#00467F" d="M137.915,54.598c0.095-0.159,1.856-3.613,4.55-5.554c0.797,1.6,2.273,2.234,3.021,2.283
		c0.582,0.743,1.68,1.66,2.707,1.757c-0.02,0.575,0.057,1.619,0.557,2.326l0.047,0.011c-0.047,0.206-0.017,0.411-0.014,0.468
		c-0.384,0.15-1.344,1.11-1.773,1.431c-0.357,0.029-0.986,0.257-1.029,0.285c-0.927-0.606-1.716-0.267-1.811-0.225
		c-0.049,0.021-0.127,0.093,0,0.093c0.416,0,1.243,0.401,1.216,0.57c-1.787,0.04-2.082,0.809-2.231,1.009
		c-0.059,0.084,0,0.094,0.059,0.064c0.795-0.388,2.121-0.267,2.544-0.32c0.095,0.052,0.081,0.035,0.172,0.061
		c-0.233,0.257-0.499,0.553-0.63,1.139c0.004,0.004-0.02,0.245-0.004,0.436c0.004,0.15,0.068,0.065,0.103,0
		c0.226-0.465,0.537-0.802,0.678-0.891c0.139-0.087,0.29-0.252,0.452-0.414c0.162-0.164,0.386-0.27,0.493-0.292
		c0.418-0.139,0.711-0.591,0.79-0.673c0.363-0.513,0.86-0.729,0.888-0.755c0.553-0.262,1.712-0.628,1.744-0.657
		c0.353-0.113,0.412-0.386,0.4-0.428v-0.295c0-0.136,0.09-0.227,0.135-0.255c0.689-0.532,1.668-0.614,1.718-0.617
		c0.327,0.6,0.592,1.245,0.624,1.759c-0.117,0.349-0.404,0.801-0.419,0.848c-1.376,0.194-1.671,0.869-1.697,0.906
		c-0.115,0.166,0.039,0.097,0.063,0.072c0.369-0.198,0.91-0.451,1.43-0.287c-1.025,0.772-0.902,1.833-0.888,1.877
		c0.021,0.174,0.157,0.092,0.183,0.014c0.248-0.551,0.993-1.494,1.634-1.663c0.084,0.374,0.342,1.05,0.678,1.265
		c0.068,0.076,0.141,0.072,0.123-0.032c-0.072-0.495-0.222-1.227-0.092-1.519c0.175-0.322,0.262-0.606,0.195-0.838
		c-0.035-0.136,0.012-0.249,0.036-0.284c0.028-0.037,0.135-0.231,0.15-0.276c0.12-0.203-0.004-0.296-0.044-0.372
		c-0.61-1.054-0.566-1.838-0.566-1.838c0.372-0.103,3.111-0.945,3.242-4.557c0.119-3.165-2.561-7.124-7.852-6.96
		c-0.742,0.036-2.371,0.189-3.627,1.66c-0.13-0.219-0.896-0.927-1.986-0.951c-1.052-0.037-3.761,0.94-3.248,3.881
		c-1.358,1.747-2.602,3.713-3.127,5.141c-0.098,0.256-0.037,1.075,0.256,1.611C137.814,54.648,137.852,54.648,137.915,54.598
		 M138.45,52.414c1.178-2.445,2.561-3.653,2.981-4.433c-0.906-1.951,1.447-3.393,2.499-3.233c1.441,0,1.73,1.5,1.73,1.5
		s1.287-2.099,2.942-2.149c-0.473,0.447-0.566,0.748-0.566,0.748l0.004,0.108c0,0,0.744-0.782,2.211-0.782
		c-0.52,0.361-0.734,0.722-0.734,0.722l0.012,0.053c-0.032,0.087,1.003-0.682,2.584-0.053c-0.355,0.025-0.908,0.261-0.967,0.415
		c-0.056,0.048,0.008,0.048,0.008,0.048c1.911-0.246,3.619,1.817,3.584,3.723c-0.056,1.369-0.979,2.787-2.773,3.2
		c-0.251,0.292-0.62,1.439-0.62,1.439c-0.863,0.281-1.907,1.039-2.054,1.202c0,0-0.017-0.045-0.011,0.008l-0.076-0.099
		c-0.321-0.542-0.316-2.21-0.339-2.404c-1.843,0.171-2.884-1.564-3.115-1.735c-2.075-0.132-2.978-2.477-3.135-2.599
		c-1.564,0.952-3.1,2.893-4.164,4.407C138.473,52.447,138.427,52.465,138.45,52.414"/>
	<path fill="#FFFFFF" d="M142.613,48.092c0.158,0.122,1.061,2.467,3.136,2.6c0.233,0.17,1.273,1.904,3.115,1.734
		c0.022,0.194,0.019,1.862,0.339,2.405l0.075,0.099c-0.006-0.051,0.012-0.006,0.012-0.006c0.147-0.164,1.19-0.921,2.052-1.202
		c0,0,0.369-1.147,0.621-1.44c1.793-0.413,2.717-1.831,2.772-3.2c0.036-1.905-1.672-3.969-3.583-3.723c0,0-0.064,0-0.008-0.048
		c0.059-0.155,0.612-0.39,0.966-0.415c-1.581-0.629-2.615,0.14-2.584,0.053l-0.012-0.053c0,0,0.214-0.361,0.733-0.721
		c-1.467,0-2.209,0.781-2.209,0.781l-0.004-0.108c0,0,0.093-0.301,0.565-0.747c-1.655,0.05-2.941,2.149-2.941,2.149
		s-0.289-1.502-1.73-1.502c-1.053-0.16-3.405,1.282-2.5,3.234c-0.42,0.779-1.803,1.989-2.981,4.433
		c-0.024,0.052,0.024,0.034,0,0.086C139.514,50.985,141.05,49.044,142.613,48.092 M142.289,46.742c0.243,0,0.44,0.197,0.44,0.44
		c0,0.243-0.196,0.44-0.44,0.44c-0.242,0-0.438-0.197-0.438-0.44C141.851,46.939,142.047,46.742,142.289,46.742"/>
	<path fill="#00467F" d="M142.289,47.622c0.243,0,0.44-0.197,0.44-0.44c0-0.243-0.196-0.44-0.44-0.44
		c-0.242,0-0.438,0.197-0.438,0.44C141.851,47.425,142.047,47.622,142.289,47.622"/>
	<path fill="#00467F" d="M160.224,60.232l-0.235-0.079l-0.087-0.017c-0.392-0.026-0.783-0.024-1.174-0.009
		c-1.878,0.069-3.724,0.597-5.345,1.55c-3.265,1.927-7.548,1.943-10.859-0.001c-3.449-2.043-7.99-2.063-11.459-0.059l-0.097,0.048
		c-3.248,1.918-7.524,1.934-10.791,0.037l-0.062-0.044c-3.419-2.024-7.915-2.064-11.375-0.108l-0.013-0.007l-0.164,0.097
		c-3.267,1.926-7.565,1.924-10.84-0.01l-0.22-0.112L97.5,61.52c-1.57-0.879-3.333-1.366-5.135-1.431
		c-0.138-0.005-0.276-0.013-0.414-0.013c-0.193,0-0.294,0.01-0.42,0.023l-0.729,0.046v14.339c0,2.898,1.147,10.547,5.49,18.749
		c6.026,11.383,15.827,19.977,29.13,25.544l0.134,0.056l0.132-0.056c13.303-5.567,23.101-14.161,29.122-25.544
		c4.336-8.199,5.481-15.85,5.481-18.749V60.502L160.224,60.232z M137.435,67.356l1.591-4.99l1.591,4.99h5.279l-4.332,3.122
		l1.574,4.959l-4.111-3.105l-4.113,3.106l1.576-4.96l-4.332-3.122H137.435z M110.454,67.395l1.591-4.99l1.59,4.99h5.28l-4.333,3.124
		l1.575,4.961l-4.113-3.109l-4.113,3.109l1.577-4.961l-4.332-3.124H110.454z M129.654,114.41l-4.112-3.107l-4.112,3.107l1.577-4.96
		l-4.334-3.123h5.28l1.59-4.989l1.59,4.989h5.279l-4.332,3.123L129.654,114.41z"/>
	<path fill="#FFFFFF" d="M136.183,94.749c2.347,1.186,5.12,1.028,8.25-0.47V78.964l-0.77-0.387v15.303l-0.193,0.102
		c-2.335,1.24-4.255,1.572-7.697-0.214c-3.781-1.964-7.67-0.679-9.903,1.49v1.14C128.662,92.783,133.07,93.175,136.183,94.749"/>
	<path fill="#FFFFFF" d="M114.813,94.757c3.167-1.791,7.575-1.926,10.329,1.641v-1.141c-2.236-2.167-6.128-3.452-9.905-1.49
		c-3.442,1.786-5.362,1.454-7.698,0.215l-0.194-0.103V78.576l-0.768,0.387v15.34C109.429,96.035,112.274,96.194,114.813,94.757"/>
	<path fill="#FFFFFF" d="M136.109,93.122c3.078,1.597,4.751,1.381,6.827,0.318V78.211l-0.097-0.048
		c-2.627,0.606-4.608,0.408-7.262-0.715c-3.216-1.359-6.481-0.924-9.709,1.287V94.28C128.346,92.213,132.278,91.133,136.109,93.122"
		/>
	<path fill="#FFFFFF" d="M114.902,93.122c1.418-0.736,2.85-1.051,4.218-1.051c2.324,0,4.462,0.91,6.023,2.21V78.734
		c-3.231-2.213-6.495-2.648-9.709-1.287c-2.657,1.124-4.64,1.32-7.264,0.715l-0.096,0.048v15.23
		C110.149,94.503,111.822,94.721,114.902,93.122"/>
	<path fill="#FFFFFF" d="M148.18,93.655c-0.262,0-0.505,0.113-0.666,0.31l-0.109,0.132h-1.375V92.42h1.372l0.109,0.129
		c0.163,0.194,0.405,0.304,0.667,0.304c0.465,0,0.843-0.351,0.843-0.782c0-0.432-0.379-0.782-0.843-0.782
		c-0.263,0-0.507,0.112-0.669,0.309l-0.109,0.132h-1.37v-1.676h1.365l0.11,0.13c0.162,0.194,0.404,0.304,0.668,0.304
		c0.465,0,0.842-0.35,0.842-0.781c0-0.432-0.377-0.783-0.842-0.783c-0.26,0-0.51,0.117-0.671,0.311l-0.11,0.132h-1.362v-1.677h1.36
		l0.11,0.13c0.163,0.193,0.407,0.304,0.669,0.304c0.465,0,0.843-0.351,0.843-0.783c0-0.431-0.378-0.781-0.843-0.781
		c-0.263,0-0.508,0.113-0.671,0.31l-0.11,0.131h-1.358v-1.677h1.358l0.11,0.131c0.157,0.19,0.406,0.303,0.664,0.303
		c0.466,0,0.845-0.352,0.845-0.783c0-0.431-0.379-0.781-0.845-0.781c-0.263,0-0.506,0.111-0.667,0.307l-0.109,0.133h-1.355v-1.676
		h1.349l0.108,0.129c0.165,0.194,0.409,0.304,0.672,0.304c0.465,0,0.843-0.351,0.843-0.782c0-0.432-0.379-0.783-0.843-0.783
		c-0.263,0-0.509,0.113-0.674,0.312l-0.108,0.131h-1.347v-1.677h1.348l0.108,0.128c0.165,0.194,0.411,0.304,0.673,0.304
		c0.465,0,0.843-0.35,0.843-0.781c0-0.432-0.379-0.782-0.843-0.782c-0.264,0-0.51,0.113-0.674,0.309l-0.107,0.129l-1.069,0.009
		l-1.149-0.578v15.177l-0.203,0.325c-3.428,1.698-6.489,1.887-9.103,0.568c-2.951-1.493-7.166-1.843-9.679,1.814h1.18
		c0.2,0,0.363,0.163,0.363,0.364c0,0.201-0.163,0.364-0.363,0.364h-3.69c-0.201,0-0.364-0.163-0.364-0.364
		c0-0.201,0.163-0.364,0.364-0.364h1.171c-2.473-3.598-6.673-3.513-9.665-1.822c-2.837,1.604-6.001,1.405-9.151-0.577l-0.17-0.308
		V79.329l-1.147,0.578l-1.071-0.009l-0.108-0.131c-0.162-0.196-0.407-0.308-0.672-0.308c-0.466,0-0.843,0.35-0.843,0.782
		c0,0.431,0.377,0.781,0.843,0.781c0.263,0,0.508-0.111,0.671-0.304l0.108-0.129h1.35v1.677h-1.349l-0.109-0.133
		c-0.162-0.198-0.407-0.311-0.671-0.311c-0.466,0-0.843,0.351-0.843,0.783c0,0.431,0.377,0.782,0.843,0.782
		c0.264,0,0.508-0.111,0.669-0.303l0.109-0.13h1.351v1.676h-1.353l-0.11-0.131c-0.164-0.197-0.409-0.309-0.671-0.309
		c-0.466,0-0.845,0.35-0.845,0.781c0,0.432,0.379,0.783,0.845,0.783c0.262,0,0.505-0.111,0.665-0.303l0.109-0.13h1.359v1.677h-1.361
		l-0.109-0.133c-0.159-0.194-0.409-0.309-0.668-0.309c-0.466,0-0.845,0.35-0.845,0.781c0,0.432,0.379,0.783,0.845,0.783
		c0.26,0,0.504-0.111,0.666-0.304l0.109-0.129h1.362v1.677h-1.366l-0.109-0.131c-0.166-0.201-0.405-0.312-0.671-0.312
		c-0.465,0-0.843,0.352-0.843,0.783c0,0.431,0.378,0.781,0.843,0.781c0.263,0,0.506-0.11,0.668-0.304l0.11-0.13h1.368v1.676h-1.371
		l-0.108-0.132c-0.162-0.197-0.406-0.309-0.67-0.309c-0.466,0-0.845,0.35-0.845,0.782c0,0.431,0.379,0.782,0.845,0.782
		c0.261,0,0.504-0.11,0.666-0.304l0.108-0.129h1.374v1.676h-1.377l-0.109-0.132c-0.162-0.197-0.405-0.31-0.667-0.31
		c-0.466,0-0.845,0.35-0.845,0.782c0,0.432,0.379,0.782,0.845,0.782c0.261,0,0.504-0.11,0.666-0.303l0.108-0.129h1.149l0.103,0.088
		c1.811,1.566,3.807,2.295,6.282,2.295c1.954,0,3.088-0.291,4.331-1.113c1.133-0.746,2.395-1.118,3.65-1.118
		c1.257,0,2.508,0.373,3.617,1.12l0.502,0.339l-0.534,0.285c-0.346,0.183-0.56,0.544-0.56,0.944c0,0.587,0.477,1.064,1.065,1.064
		h4.594c0.587,0,1.065-0.477,1.065-1.064c0-0.4-0.215-0.762-0.561-0.944l-0.538-0.284l0.505-0.339
		c2.221-1.493,5.005-1.493,7.265-0.002c1.247,0.823,2.381,1.114,4.334,1.114c2.475,0,4.471-0.729,6.283-2.295l0.102-0.088h1.144
		l0.109,0.126c0.168,0.194,0.413,0.306,0.67,0.306c0.466,0,0.846-0.35,0.846-0.782C149.027,94.005,148.647,93.655,148.18,93.655"/>
</g>
</svg>
